<?xml version="1.0" standalone="no"?><!DOCTYPE svg PUBLIC "-//W3C//DTD SVG 1.1//EN" "http://www.w3.org/Graphics/SVG/1.1/DTD/svg11.dtd"><svg t="1771680939647" class="icon" viewBox="0 0 1024 1024" version="1.1" xmlns="http://www.w3.org/2000/svg" p-id="21627" xmlns:xlink="http://www.w3.org/1999/xlink" width="200" height="200"><path d="M0 0h1024v1024H0z" fill="#D8D8D8" fill-opacity="0" p-id="21628"></path><path d="M965.610667 501.248L554.944 61.44a58.858667 58.858667 0 0 0-85.845333 0L92.736 465.066667a29.376 29.376 0 0 0 20.693333 50.176c8.469333 0.042667 16.512-3.626667 22.016-10.005334L512 101.333333l410.666667 440h-117.333334v306.133334a75.093333 75.093333 0 0 1-75.093333 75.093333H629.333333V690.346667a22.058667 22.058667 0 0 0 0-2.496 29.290667 29.290667 0 0 0-29.333333-29.333334h-176A29.333333 29.333333 0 0 0 394.666667 688v234.666667h-100.821334a75.093333 75.093333 0 0 1-75.093333-75.093334V541.333333h-117.333333l81.066666-86.826666a29.354667 29.354667 0 0 0-40.789333-42.24v0.277333a19.669333 19.669333 0 0 0-1.642667 1.749333l-81.514666 87.146667a58.581333 58.581333 0 0 0 42.794666 98.56H160v247.466667A133.952 133.952 0 0 0 293.845333 981.333333H394.666667a58.474667 58.474667 0 0 0 58.666666-58.666666v-205.333334h117.333334v205.333334A58.752 58.752 0 0 0 629.333333 981.333333h100.864c35.498667 0 69.525333-14.122667 94.613334-39.253333a133.333333 133.333333 0 0 0 39.189333-94.592V600h58.666667a58.709333 58.709333 0 0 0 42.944-98.56v-0.192z" fill="#000000" p-id="21629"></path></svg>